<svg width="48" height="48" viewBox="0 0 48 48" fill="none" xmlns="http://www.w3.org/2000/svg">
<rect width="48" height="48" rx="12" fill="#34C168"/>
<path d="M35.9313 13.0087C35.917 12.7641 35.8134 12.5332 35.6401 12.3599C35.4669 12.1867 35.236 12.083 34.9913 12.0687C25.4751 11.51 17.8526 14.375 14.6026 19.75C13.476 21.5886 12.9209 23.7204 13.0076 25.875C13.0642 27.2528 13.3445 28.6122 13.8376 29.9C13.8666 29.9792 13.9151 30.0499 13.9787 30.1053C14.0424 30.1607 14.119 30.1992 14.2015 30.217C14.2839 30.2348 14.3696 30.2315 14.4504 30.2074C14.5313 30.1832 14.6047 30.1389 14.6638 30.0787L25.2888 19.2912C25.3817 19.1983 25.492 19.1246 25.6134 19.0743C25.7348 19.0241 25.8649 18.9982 25.9963 18.9982C26.1277 18.9982 26.2578 19.0241 26.3792 19.0743C26.5006 19.1246 26.6109 19.1983 26.7038 19.2912C26.7967 19.3842 26.8704 19.4945 26.9207 19.6158C26.971 19.7372 26.9969 19.8673 26.9969 19.9987C26.9969 20.1301 26.971 20.2602 26.9207 20.3816C26.8704 20.503 26.7967 20.6133 26.7038 20.7062L15.0926 32.4925L13.3188 34.2662C13.1344 34.4458 13.0242 34.6883 13.0103 34.9453C12.9964 35.2024 13.0798 35.4553 13.2438 35.6537C13.3337 35.7578 13.444 35.8422 13.5679 35.9017C13.6918 35.9611 13.8266 35.9945 13.964 35.9995C14.1014 36.0045 14.2383 35.9812 14.3662 35.931C14.4942 35.8807 14.6104 35.8047 14.7076 35.7075L16.8063 33.6087C18.5738 34.4637 20.3576 34.93 22.1263 34.9925C22.2655 34.9975 22.4042 35 22.5426 35C24.5568 35.0051 26.5329 34.4503 28.2501 33.3975C33.6251 30.1475 36.4913 22.5262 35.9313 13.0087Z" fill="white"/>
</svg>
