<svg width="64" height="64" viewBox="0 0 64 64" fill="none" xmlns="http://www.w3.org/2000/svg">
<rect width="64" height="64" rx="16" fill="white"/>
<path d="M47.9083 17.3448C47.8892 17.0186 47.7511 16.7107 47.52 16.4797C47.289 16.2486 46.9811 16.1105 46.6549 16.0914C33.9666 15.3464 23.8033 19.1664 19.4699 26.3331C17.9679 28.7846 17.2277 31.627 17.3433 34.4998C17.4187 36.3368 17.7925 38.1494 18.4499 39.8664C18.4886 39.9721 18.5533 40.0663 18.6382 40.1402C18.723 40.2141 18.8251 40.2653 18.9351 40.2891C19.0451 40.3129 19.1593 40.3085 19.2671 40.2762C19.3749 40.244 19.4728 40.185 19.5516 40.1048L33.7183 25.7214C33.8422 25.5976 33.9892 25.4993 34.1511 25.4322C34.3129 25.3652 34.4864 25.3307 34.6616 25.3307C34.8368 25.3307 35.0103 25.3652 35.1721 25.4322C35.334 25.4993 35.4811 25.5976 35.6049 25.7214C35.7288 25.8453 35.8271 25.9924 35.8941 26.1542C35.9612 26.3161 35.9957 26.4896 35.9957 26.6648C35.9957 26.84 35.9612 27.0134 35.8941 27.1753C35.8271 27.3372 35.7288 27.4842 35.6049 27.6081L20.1233 43.3231L17.7583 45.6881C17.5123 45.9276 17.3655 46.2508 17.347 46.5936C17.3284 46.9363 17.4396 47.2735 17.6583 47.5381C17.7781 47.6768 17.9251 47.7893 18.0904 47.8687C18.2556 47.948 18.4354 47.9924 18.6185 47.9991C18.8016 48.0058 18.9842 47.9747 19.1548 47.9077C19.3254 47.8408 19.4803 47.7393 19.6099 47.6098L22.4083 44.8114C24.7649 45.9514 27.1433 46.5731 29.5016 46.6564C29.6872 46.6631 29.8722 46.6664 30.0566 46.6664C32.7423 46.6733 35.377 45.9335 37.6666 44.5298C44.8333 40.1964 48.6549 30.0348 47.9083 17.3448Z" fill="#34C168"/>
</svg>
